<svg version="1.1" xmlns="http://www.w3.org/2000/svg" xmlns:xlink="http://www.w3.org/1999/xlink" x="0px" y="0px" viewBox="0 0 24 24" xml:space="preserve" width="24" height="24"><title>shower</title><g class="nc-icon-wrapper" stroke-linecap="round" stroke-linejoin="round" stroke-width="1" transform="translate(0.5 0.5)" fill="#222222" stroke="#222222"><line data-color="color-2" fill="none" stroke-miterlimit="10" x1="12" y1="22" x2="12" y2="23"/> <line data-color="color-2" fill="none" stroke-miterlimit="10" x1="8" y1="19" x2="8" y2="20"/> <line data-color="color-2" fill="none" stroke-miterlimit="10" x1="16" y1="19" x2="16" y2="20"/> <path fill="none" stroke="#222222" stroke-miterlimit="10" d="M19.5,15h-15 C3.7,15,3,14.3,3,13.5l0,0C3,12.7,3.7,12,4.5,12h15c0.8,0,1.5,0.7,1.5,1.5l0,0C21,14.3,20.3,15,19.5,15z"/> <line fill="none" stroke="#222222" stroke-miterlimit="10" x1="12" y1="1" x2="12" y2="4"/> <path fill="none" stroke="#222222" stroke-miterlimit="10" d="M5,12v-1c0-3.9,3.1-7,7-7 l0,0c3.9,0,7,3.1,7,7v1"/></g></svg>