<svg xmlns="http://www.w3.org/2000/svg" viewBox="0 0 24 24" width="24" height="24"><title>microphone 2</title><g class="nc-icon-wrapper" stroke-linecap="round" stroke-linejoin="round" stroke-width="1" transform="translate(0.5 0.5)" fill="#222222" stroke="#222222"><line data-color="color-2" fill="none" stroke-miterlimit="10" x1="7" y1="8" x2="9" y2="8"/> <line data-color="color-2" fill="none" stroke-miterlimit="10" x1="15" y1="8" x2="17" y2="8"/> <path data-color="color-2" fill="none" stroke-miterlimit="10" d="M12,15 L12,15c-2.761,0-5-2.239-5-5V6c0-2.761,2.239-5,5-5h0c2.761,0,5,2.239,5,5v4C17,12.761,14.761,15,12,15z"/> <path fill="none" stroke="#222222" stroke-miterlimit="10" d="M21,10c0,4.971-4.029,9-9,9 h0c-4.971,0-9-4.029-9-9"/> <line fill="none" stroke="#222222" stroke-miterlimit="10" x1="7" y1="23" x2="17" y2="23"/> <line fill="none" stroke="#222222" stroke-miterlimit="10" x1="12" y1="19" x2="12" y2="23"/></g></svg>