<svg xmlns="http://www.w3.org/2000/svg" viewBox="0 0 24 24" width="24" height="24"><title>users mm</title><g class="nc-icon-wrapper" stroke-linecap="round" stroke-linejoin="round" stroke-width="1" transform="translate(0.5 0.5)" fill="#222222" stroke="#222222"><path d="M19,21h4V16.677a1,1,0,0,0-.629-.928l-3.742-1.5A1,1,0,0,1,18,13.323v-.878A3.982,3.982,0,0,0,20,9V7a4,4,0,0,0-6-3.465" fill="none" stroke-miterlimit="10" data-color="color-2"/> <path d="M14.371,16.749l-3.742-1.5A1,1,0,0,1,10,14.323v-.878A3.982,3.982,0,0,0,12,10V8A4,4,0,0,0,4,8v2a3.982,3.982,0,0,0,2,3.445v.878a1,1,0,0,1-.629.928l-3.742,1.5A1,1,0,0,0,1,17.677V21H15V17.677A1,1,0,0,0,14.371,16.749Z" fill="none" stroke="#222222" stroke-miterlimit="10"/></g></svg>