<svg xmlns="http://www.w3.org/2000/svg" viewBox="0 0 24 24" width="24" height="24"><title>projector</title><g class="nc-icon-wrapper" stroke-linecap="round" stroke-linejoin="round" stroke-width="1" transform="translate(0.5 0.5)" fill="#222222" stroke="#222222"><circle cx="9" cy="12" r="4" fill="none" stroke="#222222" stroke-miterlimit="10"/><path d="M5.555,10H3a2,2,0,0,0-2,2v6a2,2,0,0,0,2,2H21a2,2,0,0,0,2-2V12a2,2,0,0,0-2-2H12.445" fill="none" stroke="#222222" stroke-miterlimit="10" data-cap="butt"/><circle cx="9" cy="12" r="1" data-cap="butt" data-color="color-2" data-stroke="none" stroke="none"/><line x1="17" y1="14" x2="19" y2="14" fill="none" stroke="#222222" stroke-miterlimit="10"/><line x1="5" y1="20" x2="5" y2="22" fill="none" stroke="#222222" stroke-miterlimit="10"/><line x1="19" y1="20" x2="19" y2="22" fill="none" stroke="#222222" stroke-miterlimit="10"/><line x1="9" y1="4" x2="9" y2="2" fill="none" stroke-miterlimit="10" data-color="color-2"/><line x1="14.657" y1="6.343" x2="16.071" y2="4.929" fill="none" stroke-miterlimit="10" data-color="color-2"/><line x1="3.343" y1="6.343" x2="1.929" y2="4.929" fill="none" stroke-miterlimit="10" data-color="color-2"/></g></svg>